<svg enable-background="new 0 0 357 124.5605" viewBox="0 0 357 124.5605" xmlns="http://www.w3.org/2000/svg"><path d="M57.85 0H0c.6 0-5.63 65.72 57.85 124.56C121.11 65.48 114.93-.21 115.75 0z" fill="#006836"/><path d="m12.45 22.09 5.48 5.02-5.48 5.02 7.06-2.27 1.58 7.3 1.58-7.3 7.06 2.27-5.48-5.02 5.48-5.02-7.06 2.27-1.58-7.3-1.58 7.3zM63.33 5.14c-4 1.03-7.86 1.03-11.57 0 1.33 3.28 1.66 7.45 1.55 12.29-3.26 0-6.43-.11-9.66-.59-1.12-.29-2.99-.78-4.11-1.08 1.11 4.55 1.5 7.25.12 10.89 1.37-.29 2.73-.81 4.1-1.1 3.19-.48 6.21-.48 9.44-.48v22.89l-14.67.09h-3.78c-1.41-.18-2.81-.35-4.22-.53-.76-.12-1.52-.23-2.28-.35-.94-.38-1.71-.76-2.64-1.14 1.62 4.07 1.62 8.13 0 12.2.94-.38 1.71-.76 2.64-1.14.76-.12 1.52-.23 2.28-.35 1.41-.18 2.81-.35 4.22-.53h3.78l14.67.09c0 10.21.19 20.41 0 30.62-.02.87-.23 1.76-.61 2.55-.34.69-.94 1.13-1.58 1.56-.84.58-2.18.54-3.09 1.01-2.62 1.36-2.61 2.46-2.85 3.7-.13.67.04 1.72.15 2.38.25 1.59 2.78 3.05 3.71 4.23.36.45.34.98.54 1.53.19.51.54.97.69 1.5.18-.47-.03-.91.03-1.41s.2-1.57.04-2.04c-.12-.36-.84-1.92-1-2.27a6.82 6.82 0 0 1-.44-1.32c-.1-.46-.18-.93-.18-1.41 0-.36.03-.73.18-1.05.16-.36.37-.75.7-.97.32-.22.75-.22 1.14-.26.41-.04.84-.13 1.23 0 1.62.52 2.26 1.9 1.37 4.12-.65 1.62-.77 1.15-.68 2.93.04.76.13 2.57.34 3.28.17.59.33 1.43.81 1.92.43.42.92.65 1.36 1.06.72.66 1.21 1.25 1.67 2.12.09-.47.08-.88.04-1.35-.05-.53-.16-1.22-.43-1.67-.37-.63-.87-1.63-.59-2.34-.02-.2.27-1.37.42-2.91.09-.87-.1-2.02.15-2.77.49-1.49 1.39-1.98 2.87-1.9.97.05 2.06.93 2.1 1.99.03.63-.48 1.38-.56 2.04-.08.73-.47 1.22-.55 1.95-.21 1.92-.24 1.75-.06 2.74.14.8.32 1.89.29 2.7-.03 1.07-.3 2.02-.5 3.05.48-.47 1.89-1.75 2.07-2.34.35-1.08.46-1.05.65-1.74.22-.78.24-1.59.36-2.4.04-.49.05-1.59.24-2.08.25-.64.57-1.26.83-1.89.24-.58.28-1.31.25-2.23-.03-.85-.19-1.48.04-2.3.1-.34.18-.84.48-1.01.4-.22.68-.5 1.13-.57.32-.05.66-.1.97 0 1.32.41 1.42.58 1.85 1.72.22.59.06 1.13-.12 1.73-.15.5-.71.93-.92 1.41-.32.71-.01 2.04-.22 2.84-.17.64-.08.47-.31 1.54-.06.32-.76 1.09-.96 1.64.49-.44 1.42-.84 1.74-1.39.2-.35.61-.55.84-.89.24-.37.44-.73.74-1.05.38-.41.98-.81 1.23-1.31.29-.58.15-1.29.32-1.91.17-.61.55-1.15.7-1.76.14-.57.28-1.18.18-1.76-.11-.66-.41-1.29-.79-1.85-.22-.32-.62-.47-.94-.69-.61-.42-1.2-.87-1.85-1.23-.56-.31-1.19-.49-1.76-.79-.7-.37-1.42-.72-2.02-1.23-.5-.41-.86-.96-1.23-1.49-.32-.46-.62-.94-.8-1.47-.19-.55-.27-1.14-.28-1.71-.09-10.76 0-18.3 0-29.07L77 56.24h3.78c1.4.18 2.81.35 4.22.53.76.12 1.35.24 2.12.35.94.38 1.87.76 2.81 1.14-2.07-4.07-2.07-8.13 0-12.2-.94.38-1.87.76-2.81 1.14-.76.12-1.36.23-2.12.35-1.41.18-2.81.35-4.22.53H77l-14.67-.09V25.1c3.18 0 6.25 0 9.4.48.69.15 2.48.52 3.17.66-.82-1.86-.96-8.16.12-10.03-.7.15-2.61.51-3.31.66-3.18.48-6.17.59-9.39.59-.3-4.64-.16-8.89 1.01-12.32m39.63 27-5.48-5.02 5.48-5.02-7.06 2.27-1.58-7.3-1.58 7.3-7.06-2.27 5.48 5.02-5.48 5.02 7.06-2.27 1.58 7.3 1.58-7.3z" fill="#fff"/><path d="M347.75 47.91c-.83 0-1.38-.36-1.38-1.19 0-1.19.91-1.38 3.87-1.78v2.49c-.95.28-1.82.48-2.49.48m2.49-7.19c-7.62.79-10.27 2.37-10.27 6.48 0 3.79 2.65 5.73 5.69 5.73 1.66 0 3.36-.4 5.57-1.78l.71 1.38H357V39.69c0-5.21-2.61-6.99-6.99-6.99-2.57 0-6.2.55-9.04 1.42l.95 5.73c3.28-.91 5.33-1.22 6.56-1.22 1.26 0 1.78.43 1.78 1.42v.67zm-25.28-.87c1.42-.4 2.61-.71 3.52-.71 1.3 0 2.01.55 2.01 2.29v11.1h6.71V39.1c0-4.82-2.57-6.4-5.37-6.4-1.9 0-4.07.63-6.87 2.09v-1.9l-6.71.39v19.24h6.71zm-14.02-16.11c-2.13 0-3.71 1.58-3.71 3.71s1.58 3.71 3.71 3.71 3.71-1.58 3.71-3.71-1.58-3.71-3.71-3.71m-3.36 9.56v19.24h6.71V32.91zm-12.44-10.31v24.37c0 3.91 2.53 5.57 5.21 5.57 2.29 0 3.52-.32 5.25-.75l-.51-5.61c-2.09.47-3.24.59-3.24-.75V22.59zm-7.31.75c-2.13 0-3.71 1.58-3.71 3.71s1.58 3.71 3.71 3.71 3.71-1.58 3.71-3.71-1.58-3.71-3.71-3.71m-3.36 9.56v19.24h6.72V32.91zm-17.54-10.47h8.37l4.15-5.85h-6.68l-1.58 2.37-1.58-2.37h-6.83zm-6.36 8.69h11.57l-11.49 14.3.39 6.71h20.07l.39-6.71h-11.57l11.49-14.3-.39-6.71h-20.07zm-31.59 11.3c0 6.76 3.79 10.11 10.07 10.11s10.07-3.36 10.07-10.11c0-6.71-3.79-10.11-10.07-10.11-6.28-.01-10.07 3.39-10.07 10.11m6.87 0c0-3.28 1.34-4.19 3.2-4.19 1.82 0 3.2.91 3.2 4.19s-1.38 4.19-3.2 4.19c-1.86-.01-3.2-.92-3.2-4.19m-20.42 2.21c0 4.31 1.5 7.9 7.11 7.9 1.46 0 2.8-.2 4.86-.67l-.51-5.61c-.99.2-2.05.36-2.72.36-1.5 0-2.01-.71-2.01-2.65v-5.33h4.34l.39-5.92h-4.74v-6.16l-6.72.4v5.77h-2.57l-.4 5.92h2.96v5.99zm-19.6 6.95c2.17.63 4.54.95 6.71.95 5.89 0 8.33-2.25 8.33-6.2 0-7.03-8.77-6.24-9.05-7.19s.44-1.3 1.3-1.3c1.5 0 4.15.32 6.04.91l.95-5.49c-2.17-.63-4.54-.95-6.72-.95-5.88 0-8.33 2.25-8.33 6.2 0 7.03 8.77 6.24 9.05 7.19s-.43 1.3-1.3 1.3c-1.5 0-4.15-.32-6.04-.91zm-11.92-14.02c1.46 0 2.17.99 2.09 2.53h-4.42c.19-1.47.94-2.53 2.33-2.53m8.57 7.07c1.15-8.69-2.45-12.32-8.1-12.32-5.33 0-9.52 2.96-9.52 10.15 0 7.15 3.4 10.07 9.48 10.07 2.73 0 4.86-.43 7.15-1.26l-.87-5.17c-2.05.35-3.83.91-5.69.91-2.25 0-3.4-.75-3.4-2.37h10.95zm-40.77 7.7 7.74-.39 4.5-18.84 1.58 19.04h7.35l-3.91-27.93-9.2.4-4.23 17.93-4.38-18.33-9.2.4-3.67 27.53h7.27l1.54-19.04z" fill="#006836"/></svg>